<svg width="17" height="16" viewBox="0 0 17 16" fill="none" xmlns="http://www.w3.org/2000/svg">
<path d="M7.50065 13.6673L14.1673 7.00065C14.4788 6.69537 14.7267 6.33136 14.8967 5.92967C15.0667 5.52798 15.1553 5.09658 15.1575 4.66042C15.1597 4.22426 15.0754 3.79198 14.9095 3.3886C14.7436 2.98521 14.4994 2.61871 14.191 2.3103C13.8826 2.00188 13.5161 1.75766 13.1127 1.59177C12.7093 1.42587 12.2771 1.34159 11.8409 1.34379C11.4047 1.34599 10.9733 1.43464 10.5716 1.6046C10.17 1.77456 9.80594 2.02247 9.50065 2.33399L2.83399 9.00065C2.52247 9.30594 2.27456 9.66995 2.1046 10.0716C1.93464 10.4733 1.84599 10.9047 1.84379 11.3409C1.84159 11.7771 1.92587 12.2093 2.09177 12.6127C2.25766 13.0161 2.50188 13.3826 2.8103 13.691C3.11871 13.9994 3.48521 14.2436 3.8886 14.4095C4.29198 14.5754 4.72426 14.6597 5.16042 14.6575C5.59658 14.6553 6.02798 14.5667 6.42967 14.3967C6.83136 14.2267 7.19537 13.9788 7.50065 13.6673Z" stroke="#3A643B" stroke-width="1.33333" stroke-linecap="round" stroke-linejoin="round"/>
<path d="M6.16797 5.66699L10.8346 10.3337" stroke="#3A643B" stroke-width="1.33333" stroke-linecap="round" stroke-linejoin="round"/>
</svg>
